<svg id="svg" version="1.1" xmlns="http://www.w3.org/2000/svg" xmlns:xlink="http://www.w3.org/1999/xlink" width="400" height="400" viewBox="0, 0, 400,400"><g id="svgg"><path id="path0" d="M50.704 212.333 C 49.846 212.858,49.833 212.982,49.833 220.899 L 49.833 228.277 54.533 233.097 C 59.917 238.619,69.806 248.767,74.333 253.416 C 76.029 255.157,78.844 258.045,80.589 259.833 C 88.603 268.047,96.984 276.648,99.417 279.158 C 102.786 282.635,107.355 287.322,111.447 291.500 C 113.197 293.287,116.082 296.249,117.857 298.082 C 122.213 302.580,127.740 308.229,130.614 311.121 L 132.978 313.500 134.882 313.500 L 136.785 313.500 138.018 312.203 C 143.806 306.110,144.097 305.226,141.465 301.737 C 140.797 300.851,140.025 299.774,139.750 299.345 C 139.297 298.639,138.697 297.815,136.778 295.265 C 136.427 294.798,135.947 294.117,135.712 293.750 C 135.476 293.383,134.672 292.258,133.925 291.250 C 133.178 290.242,131.938 288.517,131.169 287.417 C 130.401 286.317,129.373 284.921,128.886 284.315 C 128.399 283.709,128.000 283.157,128.000 283.088 C 128.000 282.960,126.365 280.649,126.169 280.500 C 126.108 280.454,125.394 279.479,124.582 278.333 C 122.115 274.854,120.599 272.754,120.491 272.667 C 120.435 272.621,119.926 271.893,119.361 271.049 C 118.796 270.204,117.998 269.101,117.587 268.596 C 117.176 268.092,116.491 267.170,116.065 266.548 C 115.640 265.926,114.453 264.254,113.428 262.833 C 112.404 261.412,111.086 259.575,110.499 258.750 C 109.913 257.925,109.145 256.875,108.793 256.417 C 108.441 255.958,107.653 254.871,107.043 254.000 C 106.433 253.129,105.855 252.335,105.759 252.235 C 105.662 252.136,105.208 251.510,104.750 250.845 C 103.842 249.528,103.168 248.587,101.396 246.167 C 100.759 245.296,99.828 244.000,99.327 243.286 C 98.826 242.573,97.983 241.417,97.453 240.718 C 96.924 240.019,96.140 238.915,95.713 238.265 C 95.285 237.615,94.680 236.767,94.369 236.381 C 94.057 235.994,93.364 235.057,92.827 234.297 C 92.291 233.538,91.790 232.842,91.714 232.750 C 91.639 232.658,91.136 231.946,90.598 231.167 C 90.059 230.387,89.362 229.431,89.048 229.042 L 88.478 228.333 219.322 228.333 L 350.167 228.333 350.167 220.250 L 350.167 212.167 200.930 212.167 C 118.850 212.167,51.594 212.129,51.472 212.083 C 51.350 212.037,51.004 212.150,50.704 212.333 " stroke="none" fill="#c4e3fc" fill-rule="evenodd"></path><path id="path1" d="M264.011 86.261 C 263.357 86.545,260.901 88.970,259.885 90.333 C 259.510 90.837,258.886 91.550,258.498 91.917 C 257.321 93.030,256.850 94.646,257.333 95.915 C 257.526 96.424,262.413 103.236,263.359 104.315 C 263.711 104.718,264.000 105.123,264.000 105.217 C 264.000 105.384,265.624 107.617,266.187 108.225 C 266.343 108.394,266.834 109.055,267.278 109.693 C 267.721 110.331,268.983 112.078,270.083 113.576 C 271.183 115.074,272.608 117.034,273.250 117.932 C 273.892 118.830,274.529 119.683,274.667 119.827 C 275.107 120.289,275.920 121.403,276.150 121.860 C 276.273 122.104,276.899 122.967,277.541 123.777 C 278.183 124.587,279.050 125.737,279.468 126.333 C 280.566 127.898,283.352 131.707,283.614 132.000 C 283.736 132.137,284.117 132.676,284.460 133.197 C 284.803 133.718,285.663 134.881,286.372 135.783 C 287.082 136.685,287.907 137.813,288.206 138.289 C 288.505 138.766,289.394 140.002,290.182 141.036 C 292.404 143.955,295.147 147.691,296.269 149.325 C 296.829 150.142,297.760 151.397,298.337 152.113 C 298.915 152.830,299.701 153.907,300.086 154.505 C 300.470 155.104,300.892 155.704,301.024 155.839 C 301.156 155.973,302.077 157.208,303.072 158.583 C 305.926 162.528,306.167 162.852,307.110 164.019 C 307.599 164.625,308.000 165.178,308.000 165.247 C 308.000 165.395,309.323 167.260,309.776 167.750 C 309.945 167.933,310.405 168.515,310.797 169.042 L 311.511 170.000 180.672 170.000 L 49.833 170.000 49.833 178.167 L 49.833 186.333 199.425 186.333 C 330.389 186.333,349.075 186.303,349.488 186.089 C 350.182 185.731,350.167 185.924,350.167 177.625 L 350.167 169.945 341.042 160.770 C 332.114 151.793,323.764 143.376,305.154 124.593 C 265.857 84.929,267.328 86.394,266.571 86.184 C 265.675 85.935,264.695 85.965,264.011 86.261 " stroke="none" fill="#fcfcfc" fill-rule="evenodd"></path><path id="path2" d="M133.583 313.756 C 134.236 314.055,135.639 314.052,136.167 313.750 C 136.547 313.532,136.432 313.512,134.833 313.519 C 133.215 313.527,133.121 313.544,133.583 313.756 " stroke="none" fill="#14acdc" fill-rule="evenodd"></path><path id="path3" d="M126.139 212.125 C 167.236 212.148,234.436 212.148,275.472 212.125 C 316.508 212.102,282.883 212.083,200.750 212.083 C 118.617 212.083,85.042 212.102,126.139 212.125 " stroke="none" fill="#c8d4ec" fill-rule="evenodd"></path><path id="path4" d="" stroke="none" fill="#e4100ec" fill-rule="evenodd"></path></g></svg>